<svg xmlns="http://www.w3.org/2000/svg" width="1024" height="1024" fill="none"  xmlns:v="https://vecta.io/nano"><circle cx="512" cy="512" r="512" fill="url(#A)"/><path d="M563.941 780.98h187.417l-4.709-199.282c-.865-37.512-10.188-71.996-28.834-98.664-8.553-12.211-19.126-22.859-31.716-31.358-23.932-17.681-61.223-34.581-116.872-33.311 7.208-15.728 22.106-33.41 62.761-70.335 40.751-36.535 74.871-66.428 102.743-88.896l-10.092-17.29c-92.267-1.173-172.52 12.992-240.375 42.494-67.855 29.403-120.62 72.679-157.815 129.728-37.58 57.05-56.225 124.259-56.225 202.506 0 49.528 5.382 104.623 16.627 164.408h158.488v-42.103c-.384-5.862-.384-16.51 0-32.237l.769-39.759.673-16.021c5.862-53.239 37.579-64.864 56.609-65.45h2.499c19.03.488 50.651 12.211 56.61 65.45l.673 16.021.769 39.759c.384 15.727.384 26.375 0 32.237v42.103z" fill="#fff"/><defs><linearGradient id="A" x1="888.889" y1="149.333" x2="163.556" y2="910.222" gradientUnits="userSpaceOnUse"><stop stop-color="#ff6047"/><stop offset=".891" stop-color="#ff3c3c"/></linearGradient></defs></svg>